<?xml version="1.0" standalone="no"?>
<!DOCTYPE svg PUBLIC "-//W3C//DTD SVG 20010904//EN"
 "http://www.w3.org/TR/2001/REC-SVG-20010904/DTD/svg10.dtd">
<svg version="1.0" xmlns="http://www.w3.org/2000/svg"
 width="2000.000000pt" height="2000.000000pt" viewBox="0 0 2000.000000 2000.000000"
 preserveAspectRatio="xMidYMid meet">

<g transform="translate(0.000000,2000.000000) scale(0.100000,-0.100000)"
fill="#000000" stroke="none">
<path d="M5569 13038 c-30 -22 -38 -33 -30 -41 13 -13 15 -31 3 -23 -5 3 -8
-8 -8 -24 0 -16 4 -28 9 -27 5 1 12 -4 15 -12 3 -9 0 -11 -8 -6 -21 13 9 -35
57 -93 25 -28 49 -50 54 -46 5 3 8 1 7 -4 -3 -10 64 -99 74 -98 3 1 10 -3 15
-8 5 -5 3 -6 -4 -2 -17 10 -16 -4 2 -28 14 -18 15 -16 15 27 0 52 22 161 27
136 2 -9 28 -27 57 -41 l54 -25 -20 46 c-11 25 -29 59 -42 76 -12 16 -27 43
-34 58 -9 21 -17 27 -29 23 -12 -5 -13 -3 -5 6 8 10 3 22 -19 46 -31 34 -45
41 -36 17 6 -14 -7 -28 -31 -31 -7 -1 -4 8 8 23 19 24 19 28 5 43 -9 10 -34
22 -56 28 -35 9 -43 7 -80 -20z m19 -94 c-13 -13 -20 -14 -34 -5 -17 11 -17
11 4 6 21 -6 28 3 22 30 -1 6 4 4 11 -3 11 -10 10 -15 -3 -28z m177 16 c10
-11 16 -20 13 -20 -3 0 -13 9 -23 20 -10 11 -16 20 -13 20 3 0 13 -9 23 -20z
m-182 -63 c3 -8 -1 -14 -8 -14 -7 0 -11 6 -8 14 3 7 6 13 8 13 2 0 5 -6 8 -13z
m83 -29 c3 -5 1 -15 -6 -21 -10 -9 -12 -8 -6 7 5 13 2 17 -9 13 -8 -4 -16 -3
-19 1 -3 4 4 8 14 9 11 1 22 -3 26 -9z m-35 -36 c-6 -2 -9 -8 -5 -13 10 -17
-3 -9 -22 13 -19 22 -19 22 0 8 18 -14 19 -13 13 4 -7 16 -5 17 9 5 10 -8 12
-15 5 -17z m173 -8 c5 -14 4 -15 -9 -4 -17 14 -19 20 -6 20 5 0 12 -7 15 -16z
m23 -6 c-3 -8 -6 -5 -6 6 -1 11 2 17 5 13 3 -3 4 -12 1 -19z m-172 -8 c3 -5 1
-10 -4 -10 -6 0 -11 5 -11 10 0 6 2 10 4 10 3 0 8 -4 11 -10z m93 -115 c-3 -3
-9 2 -12 12 -6 14 -5 15 5 6 7 -7 10 -15 7 -18z"/>
<path d="M14307 13035 c-18 -12 -31 -27 -29 -33 1 -7 -4 -11 -10 -9 -7 1 -12
-4 -10 -11 1 -8 -2 -11 -7 -8 -5 3 -15 -2 -22 -11 -8 -9 -9 -14 -2 -10 7 4 10
1 9 -10 -2 -9 -9 -19 -17 -21 -11 -3 -11 -1 1 8 13 10 13 11 0 7 -8 -2 -16 -9
-16 -15 -1 -7 -3 -15 -4 -19 -1 -5 -2 -12 -1 -16 1 -5 -3 -6 -8 -3 -10 6 -69
-91 -90 -146 l-10 -28 38 25 c22 13 50 27 64 30 29 8 37 -12 39 -97 1 -31 5
-55 10 -52 4 3 8 11 8 19 0 7 6 16 13 18 9 4 8 8 -3 17 -13 10 -13 11 2 7 24
-8 30 4 11 25 -9 10 -11 18 -5 18 6 0 12 -6 15 -12 3 -9 10 -8 26 6 12 11 19
26 16 33 -2 8 -1 12 4 9 5 -3 31 18 58 48 52 57 96 125 72 111 -12 -7 -12 -6
-1 7 7 9 12 31 11 49 -2 35 -35 83 -50 73 -5 -3 -9 -1 -9 5 0 18 -71 8 -103
-14z m129 -32 c0 -13 -6 -23 -14 -23 -7 0 -10 -5 -7 -10 4 -6 11 -7 17 -4 7 4
8 2 4 -4 -4 -7 0 -12 10 -12 25 0 13 -8 -20 -14 -22 -4 -26 -2 -18 6 8 8 8 15
2 23 -7 9 -5 16 5 25 14 11 14 14 -1 24 -14 10 -13 12 3 12 13 0 19 -7 19 -23z
m-125 -11 c-6 -2 -11 -8 -11 -13 0 -6 4 -8 9 -4 5 3 12 1 15 -4 4 -5 -2 -8
-11 -7 -12 2 -18 12 -18 29 -1 21 2 24 13 14 9 -7 10 -13 3 -15z m120 -89 c13
-16 12 -17 -3 -4 -17 13 -22 21 -14 21 2 0 10 -8 17 -17z m-198 -6 c3 -8 -1
-14 -9 -14 -15 0 -18 9 -7 20 9 9 10 9 16 -6z m117 -21 c0 -2 -8 -10 -17 -17
-16 -13 -17 -12 -4 4 13 16 21 21 21 13z m31 -26 c6 0 8 4 5 8 -3 5 1 9 8 9 7
0 13 -6 13 -12 0 -16 -40 -13 -43 3 -1 7 0 8 3 2 2 -5 9 -10 14 -10z m-141
-10 c0 -5 -4 -10 -10 -10 -5 0 -10 5 -10 10 0 6 5 10 10 10 6 0 10 -4 10 -10z
m104 -4 c-4 -10 3 -13 28 -10 29 3 31 2 13 -8 -11 -7 -23 -13 -27 -14 -5 -1
-11 -2 -15 -3 -5 -1 -1 -6 7 -11 12 -7 10 -9 -7 -7 -17 1 -19 4 -11 14 7 9 7
17 -1 27 -11 13 -10 16 16 25 1 1 0 -5 -3 -13z m-117 -38 c0 -13 -1 -17 -4
-10 -3 6 -9 10 -13 7 -5 -3 -12 0 -16 6 -4 8 -3 9 4 5 7 -4 12 -2 12 3 0 22
16 10 17 -11z m-68 -11 c-13 -13 -26 -21 -29 -19 -5 4 38 42 48 42 3 0 -6 -10
-19 -23z"/>
<path d="M5982 12531 c-92 -32 -178 -122 -203 -214 -23 -85 11 -239 85 -386
46 -89 160 -259 233 -344 178 -210 343 -480 378 -622 33 -131 10 -224 -67
-269 -67 -39 -112 -36 -159 13 -44 48 -67 112 -78 221 -11 103 -24 119 -50 59
-30 -67 -44 -170 -32 -236 21 -108 112 -253 204 -322 101 -76 203 -88 331 -41
169 64 251 186 278 413 41 348 -165 1103 -394 1440 -96 142 -256 274 -358 296
-70 15 -106 13 -168 -8z"/>
<path d="M13860 12541 c-149 -31 -327 -208 -452 -447 -175 -337 -308 -847
-308 -1182 0 -163 10 -220 55 -317 54 -117 158 -198 292 -225 120 -25 211 6
312 107 122 122 178 277 152 417 -12 63 -40 129 -56 130 -5 1 -15 -44 -22 -98
-15 -122 -57 -217 -105 -242 -43 -22 -101 -13 -147 24 -70 56 -84 125 -52 252
37 149 174 383 331 569 232 275 356 508 367 692 7 103 -11 152 -82 228 -72 77
-185 114 -285 92z"/>
<path d="M7313 11478 l-153 -101 0 -46 c0 -25 3 -56 6 -68 l6 -23 2829 -2
c2508 -3 2830 -1 2833 12 3 8 6 40 8 70 l3 54 -130 89 c-198 134 -156 133
-338 11 l-157 -104 -159 106 -159 106 -153 -103 c-84 -56 -158 -102 -164 -102
-6 0 -79 46 -163 102 l-153 102 -159 -106 -160 -106 -156 106 c-88 60 -161
102 -167 98 -7 -4 -79 -51 -160 -105 l-148 -98 -159 106 -159 105 -153 -102
c-84 -56 -157 -102 -163 -102 -6 0 -79 46 -163 102 l-153 102 -160 -105 -159
-106 -158 105 -159 106 -158 -106 -158 -107 -158 107 -157 107 -149 -99 c-81
-55 -153 -102 -159 -106 -6 -4 -82 41 -168 98 -86 58 -157 105 -158 105 -2 0
-72 -46 -155 -102z"/>
<path d="M7190 11133 c1 -5 13 -39 28 -78 l28 -70 2752 -3 2753 -2 24 55 c14
30 27 66 31 80 l6 25 -2811 0 c-1546 0 -2811 -3 -2811 -7z"/>
<path d="M7319 10873 c45 -84 197 -197 324 -240 l82 -28 2270 0 c2172 0 2273
1 2335 18 107 31 197 84 283 168 42 42 77 81 77 88 0 8 -671 11 -2690 11
-2559 0 -2690 -1 -2681 -17z"/>
<path d="M9283 10350 c-71 -13 -159 -50 -227 -95 -69 -45 -264 -228 -434 -405
-141 -147 -494 -482 -637 -605 -190 -163 -410 -317 -561 -393 -93 -47 -227
-91 -310 -101 -153 -19 -271 20 -441 148 -101 76 -182 170 -228 266 -45 95
-59 164 -53 271 14 248 166 396 408 398 137 0 202 -41 261 -169 37 -78 47
-158 25 -208 -34 -83 -166 -89 -244 -11 -33 33 -34 37 -28 85 5 33 3 56 -5 65
-44 53 -208 -65 -266 -193 -84 -183 88 -433 312 -451 223 -17 460 161 540 407
14 42 16 75 13 148 -5 88 -9 101 -52 188 -103 209 -319 349 -558 363 -263 15
-464 -122 -608 -413 -72 -144 -95 -241 -95 -395 0 -100 5 -141 23 -203 43
-151 118 -273 257 -416 212 -220 427 -330 732 -376 125 -19 439 -27 563 -15
412 43 850 183 1365 435 404 198 675 375 869 567 l98 98 77 -78 c248 -255 678
-512 1264 -756 297 -124 595 -210 877 -253 174 -26 543 -23 704 6 298 53 492
155 697 362 199 203 289 397 289 623 -1 366 -236 725 -525 801 -82 21 -206 19
-299 -5 -235 -60 -437 -252 -485 -460 -58 -251 132 -534 414 -615 128 -38 273
1 357 94 70 78 101 143 106 228 4 64 1 79 -22 127 -62 126 -222 235 -266 181
-10 -12 -11 -24 -2 -52 17 -56 -6 -96 -74 -129 -72 -35 -132 -30 -177 14 -27
27 -30 37 -30 89 1 70 24 142 65 204 77 115 214 146 381 86 87 -32 140 -67
177 -118 88 -121 109 -330 49 -483 -63 -159 -250 -340 -436 -422 -196 -87
-446 -24 -776 196 -262 175 -419 313 -942 830 -209 207 -410 397 -446 423
-168 119 -331 151 -523 101 -122 -32 -293 -128 -404 -228 l-52 -48 -58 53
c-106 97 -274 192 -396 224 -78 19 -198 26 -263 15z"/>
<path d="M5425 7926 c-22 -7 -56 -21 -75 -32 -32 -17 -55 -18 -305 -16 -290 4
-429 -8 -575 -48 -234 -65 -384 -206 -397 -372 -7 -80 9 -139 49 -184 44 -50
83 -67 153 -68 64 0 108 17 145 56 52 56 46 164 -11 193 -29 15 -32 15 -83
-15 -65 -36 -80 -37 -111 -5 -35 34 -35 106 0 157 56 83 216 157 412 192 l32
5 3 -672 c3 -627 4 -674 21 -705 23 -43 69 -62 147 -62 78 0 124 19 147 62 17
31 18 78 21 707 l3 673 77 -7 c110 -10 218 -40 279 -77 l53 -32 0 -626 c0
-694 -4 -657 66 -686 45 -19 148 -18 189 1 18 9 37 27 44 41 7 17 11 136 11
377 l0 352 35 47 c84 114 170 98 213 -41 14 -47 17 -98 17 -321 0 -279 -12
-379 -54 -475 -20 -44 -69 -92 -105 -101 -18 -4 -22 -11 -18 -29 4 -21 8 -23
41 -18 162 22 291 114 370 263 18 33 44 104 58 157 23 87 26 117 26 273 0 100
-5 203 -12 239 -39 199 -118 284 -266 285 -92 0 -149 -27 -237 -115 l-68 -67
0 302 c0 337 -3 352 -70 388 -41 21 -162 24 -225 4z"/>
<path d="M8345 7870 c-72 -15 -169 -51 -226 -86 -202 -122 -259 -366 -115
-492 85 -75 253 -49 292 44 20 49 18 107 -6 137 -31 39 -56 42 -98 14 -52 -34
-75 -40 -106 -26 -52 24 -58 118 -11 191 50 76 181 138 292 138 69 0 115 -21
138 -63 17 -32 16 -36 -22 -192 -22 -88 -71 -271 -108 -407 l-68 -248 -134 0
-133 0 0 -45 0 -45 120 0 c66 0 120 -1 120 -3 0 -16 -76 -190 -105 -243 -75
-133 -152 -194 -247 -194 -68 0 -105 22 -147 89 -19 30 -40 51 -51 51 -26 0
-67 -46 -74 -82 -9 -43 16 -76 80 -108 43 -22 62 -25 159 -25 83 0 121 4 154
18 133 55 225 172 311 397 l36 95 194 0 193 0 44 -155 c57 -201 66 -218 133
-252 44 -23 67 -28 126 -28 78 0 173 25 238 62 43 25 50 36 38 56 -7 10 -16 9
-47 -3 -21 -9 -48 -14 -60 -11 -26 7 -32 20 -80 181 -19 66 -38 128 -41 138
-5 15 4 17 90 17 l96 0 0 45 0 45 -108 0 -109 0 -88 307 c-126 438 -151 515
-188 569 -37 56 -110 98 -196 114 -62 12 -228 11 -286 0z m325 -691 c44 -151
80 -280 80 -286 0 -10 -39 -13 -160 -13 -121 0 -160 3 -160 13 0 6 9 41 21 77
11 36 43 155 70 265 56 224 58 230 64 223 3 -2 41 -128 85 -279z"/>
<path d="M12430 7771 c-55 -29 -83 -76 -77 -134 5 -55 26 -82 82 -108 86 -40
192 -9 226 65 24 52 23 60 -2 112 -36 75 -150 108 -229 65z"/>
<path d="M13012 7773 c-55 -27 -82 -68 -82 -122 0 -59 25 -95 84 -122 56 -25
114 -24 166 4 45 24 80 74 80 115 0 105 -143 177 -248 125z"/>
<path d="M10863 7683 c-38 -111 -103 -187 -206 -238 -38 -19 -78 -35 -88 -35
-36 0 -49 -12 -49 -46 l0 -33 58 -3 57 -3 5 -421 5 -420 28 -42 c43 -65 94
-87 202 -87 77 1 97 5 141 27 57 30 103 78 135 139 33 65 9 72 -44 14 -38 -42
-49 -49 -82 -49 -27 0 -43 6 -56 23 -18 22 -19 47 -19 422 l0 399 93 0 c113 0
158 12 190 50 69 81 23 208 -64 178 -52 -18 -51 -86 2 -108 28 -12 29 -14 14
-29 -12 -12 -41 -17 -125 -19 l-110 -4 0 151 0 151 -40 0 c-30 0 -42 -5 -47
-17z"/>
<path d="M13758 7652 c-39 -108 -145 -202 -267 -236 -60 -17 -61 -18 -61 -52
l0 -34 55 0 55 0 0 -402 0 -403 24 -51 c38 -82 111 -124 217 -124 115 0 211
57 267 157 30 56 32 64 17 70 -12 4 -21 0 -28 -13 -38 -68 -103 -98 -145 -67
l-27 20 -3 407 -2 406 97 1 c54 0 114 5 133 12 48 17 80 67 80 127 0 60 -23
91 -67 92 -46 1 -65 -18 -61 -61 2 -28 9 -39 31 -49 63 -30 13 -52 -119 -52
l-94 0 0 150 0 150 -43 0 c-42 0 -43 -1 -59 -48z"/>
<path d="M6883 7406 c-188 -43 -342 -181 -405 -364 -32 -95 -32 -277 1 -372
40 -117 126 -221 219 -269 186 -95 437 -52 587 99 50 50 56 61 46 74 -12 14
-18 12 -51 -14 -100 -79 -210 -93 -311 -38 -33 17 -74 47 -91 67 -42 48 -89
150 -91 201 l-2 42 197 117 c229 135 253 152 279 194 21 36 25 106 8 140 -54
105 -225 159 -386 123z m94 -119 c56 -50 70 -202 23 -237 -30 -22 -217 -130
-226 -130 -4 0 -4 44 -1 98 11 159 50 261 111 288 36 15 62 10 93 -19z"/>
<path d="M9551 7405 c-57 -16 -144 -60 -162 -81 -16 -20 -2 -36 21 -24 28 15
66 12 84 -6 14 -13 16 -66 16 -423 0 -225 3 -423 6 -440 9 -45 55 -74 126 -79
77 -6 125 5 154 33 l24 24 0 358 0 358 34 51 c75 112 168 105 211 -16 57 -160
34 -684 -35 -820 -20 -40 -67 -85 -100 -95 -18 -6 -27 -34 -15 -47 13 -12 126
15 190 47 216 105 318 350 302 718 -10 210 -43 322 -118 395 -41 40 -88 56
-164 56 -85 0 -160 -36 -241 -119 l-64 -65 0 36 c0 46 -33 106 -72 128 -40 24
-131 29 -197 11z"/>
<path d="M11630 7413 c-49 -7 -146 -46 -186 -74 -92 -63 -158 -163 -190 -289
-23 -86 -22 -253 1 -340 58 -225 228 -360 452 -360 218 0 388 140 448 371 23
86 24 263 2 346 -35 134 -110 235 -217 292 -89 48 -214 70 -310 54z m138 -120
c65 -41 98 -215 89 -468 -6 -160 -18 -238 -48 -297 -58 -115 -170 -101 -219
29 -42 112 -51 446 -16 594 33 143 108 197 194 142z"/>
<path d="M12404 7402 c-83 -25 -169 -79 -153 -98 8 -10 16 -11 29 -4 33 18 69
11 86 -14 14 -22 15 -78 12 -513 -4 -465 -5 -492 -26 -567 -50 -179 -152 -268
-272 -237 -52 14 -82 39 -117 99 -17 29 -32 42 -47 42 -31 0 -63 -37 -71 -82
-6 -33 -3 -41 22 -67 44 -43 127 -65 248 -64 283 1 466 137 547 405 21 70 22
93 25 538 3 431 2 468 -14 500 -10 19 -33 43 -51 53 -47 27 -142 31 -218 9z"/>
<path d="M13025 7414 c-60 -15 -113 -37 -157 -65 -38 -25 -46 -34 -37 -45 8
-10 16 -11 31 -3 31 17 71 7 85 -21 10 -19 13 -128 13 -445 1 -314 4 -424 13
-436 35 -47 159 -65 231 -35 68 28 66 13 66 501 0 490 0 489 -68 528 -33 19
-136 31 -177 21z"/>
<path d="M14515 7409 c-240 -49 -390 -278 -372 -569 19 -313 214 -504 497
-487 104 6 176 32 251 91 112 88 178 234 187 412 13 281 -99 473 -317 540 -61
19 -184 25 -246 13z m141 -103 c53 -15 91 -113 105 -271 18 -196 -4 -423 -50
-513 -25 -50 -42 -63 -89 -69 -33 -4 -44 -1 -75 27 -60 52 -78 127 -84 345 -7
217 6 327 45 405 27 56 78 95 112 86 8 -3 24 -7 36 -10z"/>
<path d="M15420 7405 c-81 -23 -140 -63 -175 -119 -26 -43 -30 -58 -30 -120 1
-97 36 -160 177 -318 61 -68 121 -140 134 -160 53 -84 35 -165 -46 -205 -78
-40 -163 -24 -243 47 -31 27 -40 30 -52 20 -21 -18 -20 -23 25 -68 83 -86 192
-132 314 -132 218 0 355 126 344 316 -7 106 -37 152 -214 334 -171 175 -189
205 -160 273 28 67 139 88 195 36 28 -26 27 -29 -14 -62 -66 -52 -36 -122 52
-122 60 0 93 36 93 101 0 112 -93 179 -264 189 -56 3 -98 0 -136 -10z"/>
<path d="M10032 5428 l3 -263 28 -3 27 -3 0 265 0 266 -30 0 -30 0 2 -262z"/>
<path d="M7530 5662 c0 -1 32 -71 70 -156 l70 -153 0 -96 0 -97 30 0 30 0 0
98 0 97 66 145 c36 80 68 150 70 156 3 6 -8 9 -29 6 -33 -4 -35 -7 -82 -123
-27 -65 -52 -119 -56 -119 -4 0 -29 55 -57 122 -48 117 -51 121 -81 122 -17 1
-31 0 -31 -2z"/>
<path d="M9128 5663 c-150 -3 -158 -5 -158 -23 0 -18 7 -20 65 -20 l65 0 2
-227 3 -228 28 -3 27 -3 0 230 0 231 65 0 c63 0 65 1 65 25 0 14 -1 24 -2 23
-2 -1 -74 -4 -160 -5z"/>
<path d="M10202 5643 c4 -35 43 -45 53 -14 9 28 -1 41 -31 41 -22 0 -25 -4
-22 -27z"/>
<path d="M11220 5413 l0 -254 28 3 27 3 3 118 3 117 104 0 105 0 0 -120 0
-120 30 0 30 0 0 253 0 254 -30 -5 -29 -4 -3 -107 -3 -106 -102 -3 -103 -3 0
110 0 109 -30 4 -30 5 0 -254z"/>
<path d="M7978 5525 c-14 -8 -37 -32 -50 -52 -19 -32 -23 -51 -23 -123 1 -134
43 -190 141 -190 45 0 59 5 88 30 19 17 40 47 47 67 16 50 7 184 -15 218 -39
59 -127 82 -188 50z m127 -61 c47 -51 44 -186 -5 -236 -35 -35 -73 -36 -105
-4 -45 45 -49 195 -5 241 32 34 83 34 115 -1z"/>
<path d="M8282 5376 c3 -158 4 -165 27 -190 20 -21 34 -26 72 -26 29 0 51 6
59 15 7 8 16 15 21 15 5 0 9 -7 9 -15 0 -9 9 -15 25 -15 l25 0 0 190 0 190
-25 0 -25 0 0 -144 c0 -161 -7 -181 -66 -192 -24 -5 -37 -1 -53 15 -19 19 -21
32 -21 171 l0 150 -26 0 -25 0 3 -164z"/>
<path d="M8622 5353 l3 -188 28 -3 27 -3 0 141 c0 138 1 141 26 166 16 17 32
24 45 21 16 -4 19 0 19 24 0 23 -4 29 -22 29 -12 0 -32 -10 -45 -22 l-23 -21
0 21 c0 18 -6 22 -30 22 l-30 0 2 -187z"/>
<path d="M9388 5525 c-23 -13 -58 -61 -58 -80 0 -3 12 -5 28 -5 19 0 30 7 37
23 7 16 20 23 48 25 53 4 79 -20 75 -67 l-3 -36 -63 -6 c-51 -5 -69 -12 -92
-34 -26 -25 -30 -36 -30 -82 0 -44 5 -59 25 -78 32 -33 105 -35 135 -5 11 11
22 20 24 20 2 0 6 -9 9 -20 4 -14 14 -20 32 -20 23 0 26 3 21 23 -3 12 -6 84
-6 159 0 129 -1 138 -23 164 -19 22 -34 28 -78 31 -36 2 -63 -2 -81 -12z m130
-232 c3 -50 1 -54 -30 -73 -18 -11 -42 -20 -52 -20 -53 0 -76 79 -33 117 28
26 45 32 82 30 29 -2 30 -4 33 -54z"/>
<path d="M9722 5524 c-42 -29 -56 -72 -56 -174 0 -102 14 -145 56 -174 28 -20
98 -21 124 -1 36 27 43 12 24 -56 -15 -53 -56 -69 -119 -46 -35 12 -47 13 -53
4 -12 -20 -9 -26 20 -41 73 -37 151 -24 189 33 22 33 23 41 23 252 l0 219 -25
0 c-18 0 -25 -5 -25 -20 0 -11 -2 -20 -5 -20 -3 0 -15 9 -27 20 -27 25 -94 27
-126 4z m137 -60 c18 -23 21 -41 21 -119 0 -86 -2 -94 -26 -119 -29 -28 -50
-32 -87 -15 -36 16 -47 50 -47 143 0 104 19 136 80 136 30 0 43 -6 59 -26z"/>
<path d="M10200 5350 l0 -190 25 0 25 0 0 190 0 190 -25 0 -25 0 0 -190z"/>
<path d="M10360 5350 l0 -190 25 0 25 0 0 130 c0 165 15 200 83 200 49 0 52
-10 57 -172 l5 -153 28 -3 27 -3 0 138 c0 152 -10 205 -43 228 -30 21 -89 19
-120 -5 -14 -11 -28 -20 -31 -20 -3 0 -6 9 -6 20 0 15 -7 20 -25 20 l-25 0 0
-190z"/>
<path d="M10768 5524 c-47 -25 -68 -81 -68 -179 0 -134 38 -185 138 -185 69 0
130 32 110 59 -7 9 -14 18 -15 20 -2 2 -12 -4 -22 -13 -11 -10 -37 -20 -58
-23 -54 -7 -92 25 -100 85 l-6 42 108 0 108 0 -5 63 c-3 34 -11 74 -18 88 -25
54 -112 76 -172 43z m115 -51 c8 -10 18 -35 22 -55 l7 -38 -82 0 -82 0 6 32
c11 56 32 78 75 78 23 0 44 -7 54 -17z"/>
<path d="M11721 5527 c-38 -19 -60 -57 -72 -121 -19 -103 7 -203 60 -230 16
-9 55 -16 85 -16 43 0 61 5 83 24 24 21 26 26 14 40 -13 15 -15 15 -32 0 -9
-8 -36 -18 -58 -21 -35 -5 -44 -2 -71 25 -22 23 -30 40 -30 66 l0 36 105 0
105 0 0 36 c0 107 -47 174 -123 174 -23 0 -53 -6 -66 -13z m113 -59 c7 -13 16
-38 20 -55 l6 -33 -82 0 -81 0 6 36 c9 52 32 74 78 74 29 0 42 -6 53 -22z"/>
<path d="M11992 5353 l3 -188 28 -3 27 -3 0 141 c0 138 1 141 26 166 16 17 32
24 45 21 16 -4 19 0 19 24 0 23 -4 29 -22 29 -12 0 -32 -10 -45 -22 l-23 -21
0 21 c0 18 -6 22 -30 22 l-30 0 2 -187z"/>
<path d="M12251 5515 c-39 -33 -54 -82 -54 -175 0 -131 40 -180 147 -180 43 0
61 5 83 24 24 21 26 26 14 40 -13 15 -15 15 -32 0 -9 -8 -36 -18 -58 -21 -35
-5 -44 -2 -71 25 -22 23 -30 40 -30 66 l0 36 105 0 105 0 0 38 c-1 112 -46
172 -129 172 -38 0 -56 -6 -80 -25z m133 -47 c8 -13 17 -38 21 -55 l7 -33 -83
0 -82 0 6 36 c9 52 32 74 78 74 29 0 42 -6 53 -22z"/>
</g>
</svg>
