<?xml version="1.0" standalone="no"?>
<!DOCTYPE svg PUBLIC "-//W3C//DTD SVG 20010904//EN"
 "http://www.w3.org/TR/2001/REC-SVG-20010904/DTD/svg10.dtd">
<svg version="1.0" xmlns="http://www.w3.org/2000/svg"
 width="500.000000pt" height="500.000000pt" viewBox="0 0 500.000000 500.000000"
 preserveAspectRatio="xMidYMid meet">

<g transform="translate(0.000000,500.000000) scale(0.100000,-0.100000)"
fill="#000000" stroke="none">
<path d="M880 2960 l0 -50 560 0 560 0 0 50 0 50 -560 0 -560 0 0 -50z"/>
<path d="M3000 2960 l0 -50 560 0 560 0 0 50 0 50 -560 0 -560 0 0 -50z"/>
<path d="M2432 2590 l-23 -40 28 0 c20 0 37 11 61 40 l33 40 -38 0 c-34 0 -41
-5 -61 -40z"/>
<path d="M3732 2590 l-23 -40 28 0 c20 0 37 11 61 40 l33 40 -38 0 c-34 0 -41
-5 -61 -40z"/>
<path d="M1193 2510 c-47 -28 -55 -73 -51 -264 3 -170 9 -192 54 -217 29 -15
99 -15 128 0 40 22 50 51 54 164 l4 107 -56 0 -56 0 0 -35 c0 -25 4 -35 15
-35 13 0 15 -12 13 -67 -3 -62 -5 -68 -26 -71 -48 -7 -52 8 -52 179 0 130 3
160 16 173 33 34 61 13 66 -49 3 -38 4 -40 38 -40 31 0 35 3 38 30 2 16 -1 47
-8 68 -21 70 -109 99 -177 57z"/>
<path d="M1430 2270 l0 -250 40 0 40 0 0 106 0 106 28 -6 c43 -11 52 -32 52
-123 l0 -83 41 0 42 0 -5 100 c-4 84 -8 104 -26 123 -20 21 -20 23 -2 44 39
49 33 180 -11 216 -17 13 -40 17 -110 17 l-89 0 0 -250z m150 161 c5 -11 10
-36 10 -56 0 -52 -15 -75 -50 -75 l-30 0 0 75 0 75 30 0 c19 0 33 -7 40 -19z"/>
<path d="M1720 2270 l0 -250 40 0 40 0 0 250 0 250 -40 0 -40 0 0 -250z"/>
<path d="M1860 2270 l0 -250 105 0 105 0 0 35 0 35 -65 0 -65 0 0 215 0 215
-40 0 -40 0 0 -250z"/>
<path d="M2100 2270 l0 -250 105 0 105 0 0 35 0 35 -65 0 -65 0 0 215 0 215
-40 0 -40 0 0 -250z"/>
<path d="M2340 2270 l0 -250 110 0 110 0 0 35 0 35 -70 0 -70 0 0 75 0 75 55
0 55 0 0 35 0 35 -55 0 -55 0 0 70 0 70 70 0 70 0 0 35 0 35 -110 0 -110 0 0
-250z"/>
<path d="M2720 2270 l0 -250 40 0 40 0 0 105 0 105 50 0 50 0 0 35 0 35 -50 0
-50 0 0 75 0 75 65 0 65 0 0 35 0 35 -105 0 -105 0 0 -250z"/>
<path d="M2970 2301 c0 -205 1 -220 20 -244 46 -58 154 -54 190 6 18 29 20 51
20 245 l0 212 -35 0 -35 0 0 -196 c0 -115 -4 -203 -10 -215 -6 -11 -21 -19
-35 -19 -14 0 -29 8 -35 19 -6 12 -10 100 -10 215 l0 196 -35 0 -35 0 0 -219z"/>
<path d="M3250 2270 l0 -250 35 0 35 0 2 168 3 167 18 -105 c10 -58 22 -133
28 -167 l11 -63 37 0 38 0 24 163 24 162 3 -162 2 -163 40 0 40 0 0 250 0 250
-58 0 -58 0 -24 -165 c-13 -91 -26 -163 -28 -160 -3 3 -17 76 -31 163 l-27
157 -57 3 -57 3 0 -251z"/>
<path d="M3640 2270 l0 -250 110 0 110 0 0 35 0 35 -70 0 -70 0 0 75 0 75 55
0 55 0 0 35 0 35 -55 0 -55 0 0 70 0 70 70 0 70 0 0 35 0 35 -110 0 -110 0 0
-250z"/>
<path d="M880 1410 l0 -210 1620 0 1620 0 0 210 0 210 -1620 0 -1620 0 0 -210z
m831 33 c0 -5 2 -19 4 -33 3 -32 -11 -50 -41 -50 -22 0 -24 4 -24 45 0 43 1
45 30 45 17 0 30 -3 31 -7z m118 -34 c7 -23 9 -44 5 -47 -4 -4 -9 -1 -11 6 -5
14 -43 16 -43 2 0 -5 -5 -10 -11 -10 -10 0 -7 16 12 68 13 34 35 26 48 -19z
m114 7 c-1 -17 3 -36 9 -43 6 -8 7 -13 0 -13 -5 0 -17 10 -25 23 l-16 22 0
-22 c-1 -44 -21 -22 -21 23 0 44 1 45 28 42 23 -3 27 -7 25 -32z m122 -11 c0
-38 -2 -40 -32 -43 -33 -3 -33 -3 -33 43 0 46 0 46 33 43 30 -3 32 -5 32 -43z
m93 38 c-22 -5 -24 -23 -3 -23 8 0 15 -4 15 -10 0 -5 -7 -10 -15 -10 -8 0 -15
-4 -15 -10 0 -5 7 -10 15 -10 8 0 15 -4 15 -10 0 -5 -11 -10 -25 -10 -23 0
-25 4 -25 45 0 43 1 45 28 44 16 -1 20 -3 10 -6z m106 -3 c-12 -4 -24 -15 -27
-24 -7 -17 20 -49 34 -41 5 4 9 1 9 -4 0 -12 -20 -14 -44 -5 -10 4 -16 18 -16
38 0 40 6 46 39 45 24 0 25 -1 5 -9z m86 -25 c0 -28 4 -35 20 -35 16 0 20 7
20 35 0 19 5 35 11 35 17 0 6 -72 -13 -84 -27 -17 -52 5 -56 48 -2 21 1 36 7
36 6 0 11 -16 11 -35z m148 28 c-22 -5 -24 -23 -3 -23 8 0 15 -4 15 -10 0 -5
-7 -10 -15 -10 -8 0 -15 -4 -15 -10 0 -5 7 -10 15 -10 8 0 15 -4 15 -10 0 -5
-11 -10 -25 -10 -23 0 -25 4 -25 45 0 43 1 45 28 44 16 -1 20 -3 10 -6z m165
0 c-26 -5 -31 -23 -8 -23 8 0 15 -4 15 -10 0 -5 -7 -10 -15 -10 -8 0 -15 -4
-15 -10 0 -5 6 -10 14 -10 8 0 18 -4 21 -10 4 -6 -5 -10 -19 -10 -24 0 -26 3
-26 45 0 43 1 45 28 44 23 -2 24 -2 5 -6z m115 0 c-13 -3 -18 -15 -18 -44 0
-21 -4 -39 -10 -39 -5 0 -10 18 -10 39 0 22 -5 42 -12 44 -7 3 5 5 27 5 22 0
32 -2 23 -5z m179 -35 c-2 -39 -5 -43 -29 -46 -27 -3 -28 -2 -28 42 0 44 1 46
29 46 28 0 29 -2 28 -42z m73 -3 c0 -25 -4 -45 -10 -45 -5 0 -10 20 -10 45 0
25 5 45 10 45 6 0 10 -20 10 -45z m93 38 c-26 -5 -31 -23 -8 -23 8 0 15 -4 15
-10 0 -5 -7 -10 -15 -10 -8 0 -15 -4 -15 -10 0 -5 6 -10 14 -10 8 0 18 -4 21
-10 4 -6 -7 -10 -24 -10 -30 0 -31 1 -31 45 0 44 0 45 33 44 23 -1 26 -3 10
-6z m120 -27 c-1 -17 3 -36 9 -43 7 -9 7 -13 0 -13 -6 0 -18 10 -26 22 l-15
22 -10 -25 c-8 -21 -10 -17 -10 24 -1 47 0 48 27 45 23 -3 27 -7 25 -32z m95
27 c-22 -5 -24 -23 -3 -23 8 0 15 -4 15 -10 0 -5 -7 -10 -15 -10 -8 0 -15 -4
-15 -10 0 -5 7 -10 15 -10 8 0 15 -4 15 -10 0 -5 -11 -10 -25 -10 -23 0 -25 4
-25 45 0 43 1 45 28 44 16 -1 20 -3 10 -6z"/>
<path d="M1670 1430 c0 -5 7 -10 16 -10 8 0 12 5 9 10 -3 6 -10 10 -16 10 -5
0 -9 -4 -9 -10z"/>
<path d="M1670 1390 c0 -5 7 -10 15 -10 8 0 15 5 15 10 0 6 -7 10 -15 10 -8 0
-15 -4 -15 -10z"/>
<path d="M1796 1421 c-4 -7 -5 -15 -2 -18 9 -9 19 4 14 18 -4 11 -6 11 -12 0z"/>
<path d="M1910 1425 c0 -8 5 -15 10 -15 6 0 10 7 10 15 0 8 -4 15 -10 15 -5 0
-10 -7 -10 -15z"/>
<path d="M2020 1430 c0 -5 7 -10 15 -10 8 0 15 5 15 10 0 6 -7 10 -15 10 -8 0
-15 -4 -15 -10z"/>
<path d="M2020 1390 c0 -5 7 -10 15 -10 8 0 15 5 15 10 0 6 -7 10 -15 10 -8 0
-15 -4 -15 -10z"/>
<path d="M2910 1430 c0 -5 7 -10 15 -10 8 0 15 5 15 10 0 6 -7 10 -15 10 -8 0
-15 -4 -15 -10z"/>
<path d="M2910 1390 c0 -5 7 -10 15 -10 8 0 15 5 15 10 0 6 -7 10 -15 10 -8 0
-15 -4 -15 -10z"/>
<path d="M3200 1424 c0 -9 5 -14 12 -12 18 6 21 28 4 28 -9 0 -16 -7 -16 -16z"/>
</g>
</svg>
