<?xml version="1.0" standalone="no"?>
<!DOCTYPE svg PUBLIC "-//W3C//DTD SVG 20010904//EN"
 "http://www.w3.org/TR/2001/REC-SVG-20010904/DTD/svg10.dtd">
<svg version="1.0" xmlns="http://www.w3.org/2000/svg"
 width="1300.000000pt" height="1300.000000pt" viewBox="0 0 1300.000000 1300.000000"
 preserveAspectRatio="xMidYMid meet">

<g transform="translate(0.000000,1300.000000) scale(0.100000,-0.100000)"
fill="#000000" stroke="none">
<path d="M7884 8829 c-177 -8 -284 -23 -327 -46 -69 -34 -127 -86 -175 -156
-28 -41 -58 -79 -66 -86 -70 -58 -934 -72 -1631 -27 -803 52 -1513 80 -1900
73 -352 -5 -369 -8 -386 -70 -16 -59 -15 -268 2 -303 8 -16 27 -32 44 -37 48
-16 643 -20 965 -8 338 13 899 42 1369 71 533 33 1310 26 1467 -13 44 -11 52
-17 75 -60 40 -74 124 -153 204 -192 55 -27 91 -36 170 -45 244 -27 1080 -22
1478 9 87 7 103 11 119 31 25 31 23 82 -5 108 l-23 22 -641 0 c-670 0 -674 0
-658 41 4 12 108 14 640 11 707 -3 672 -6 701 65 12 28 12 38 0 67 -8 19 -23
39 -34 45 -14 8 -222 11 -662 11 -578 0 -641 2 -647 16 -3 9 0 20 8 25 8 5
298 9 647 9 434 0 640 3 654 11 25 13 50 72 41 96 -3 10 -17 30 -31 46 l-26
27 -642 0 c-598 0 -642 1 -648 17 -17 42 -4 43 665 43 l638 0 20 26 c28 36 27
86 -3 120 -22 27 -28 28 -155 35 -433 26 -945 33 -1247 18z m1016 -40 c118 -6
240 -14 270 -18 30 -4 -253 -10 -630 -14 -754 -7 -746 -6 -907 -71 -46 -19
-83 -33 -83 -31 0 2 31 23 70 46 86 51 171 78 275 88 122 12 762 12 1005 0z
m-3820 -298 c305 -17 571 -33 590 -34 83 -8 -699 -5 -945 3 -148 5 -466 12
-705 16 -460 7 -572 14 -420 29 334 31 722 27 1480 -14z"/>
<path d="M6210 7744 c-998 -31 -1898 -155 -2795 -384 -245 -63 -632 -173 -642
-184 -5 -4 206 -710 234 -782 4 -12 -104 -14 -680 -16 l-685 -3 416 -281 c229
-155 417 -285 418 -290 2 -5 -182 -155 -407 -334 l-411 -325 1183 -3 c651 -1
1186 1 1190 5 3 5 97 242 208 528 112 286 208 525 214 532 13 12 348 70 597
102 486 63 761 82 1305 88 688 8 1159 -22 1761 -112 334 -49 425 -67 435 -86
5 -10 99 -249 210 -531 110 -282 203 -516 208 -521 4 -4 539 -6 1190 -5 l1183
3 -411 325 c-225 179 -409 329 -407 334 1 5 189 135 418 290 l416 281 -684 3
c-646 2 -685 3 -680 20 3 9 57 187 121 395 64 209 115 381 112 383 -7 7 -270
84 -492 144 -846 227 -1718 365 -2595 409 -215 12 -765 20 -930 15z m1040
-123 c1017 -73 1861 -223 2793 -497 51 -15 57 -19 51 -38 -3 -12 -10 -25 -15
-30 -5 -6 -201 31 -496 92 -267 56 -488 101 -489 99 -2 -1 210 -69 469 -151
260 -82 475 -151 478 -153 4 -1 0 -27 -9 -58 -13 -47 -18 -54 -36 -50 -67 15
-590 104 -593 101 -2 -1 124 -47 279 -101 156 -54 287 -101 291 -105 9 -8 -31
-150 -41 -150 -4 0 -171 32 -371 70 -201 38 -366 69 -367 67 -2 -1 157 -56
352 -121 194 -64 354 -122 354 -128 0 -29 -25 -88 -37 -88 -7 0 -142 23 -299
50 -158 28 -288 50 -289 48 -2 -2 125 -48 281 -103 l284 -100 -6 -30 c-4 -16
-10 -40 -15 -51 -8 -22 -10 -21 -495 77 -268 54 -489 97 -490 96 -1 -1 160
-53 359 -115 555 -173 587 -183 587 -190 0 -4 -4 -13 -9 -21 -7 -11 -41 -4
-187 37 -2026 576 -4173 575 -6184 -3 -88 -26 -164 -43 -170 -40 -27 17 -6 36
68 58 391 121 833 262 826 264 -5 2 -217 -39 -472 -91 l-463 -94 -10 27 c-6
14 -13 37 -15 51 -5 25 0 27 279 125 157 55 284 101 282 103 -1 2 -131 -20
-289 -48 -157 -27 -292 -50 -300 -50 -14 0 -36 49 -36 81 0 14 66 39 354 135
195 65 354 120 352 121 -1 2 -167 -29 -369 -67 -201 -39 -368 -70 -371 -70
-11 0 -50 140 -40 149 5 4 136 52 291 106 156 54 281 100 280 102 -3 2 -530
-88 -593 -102 -17 -4 -23 4 -37 47 -9 29 -13 55 -9 59 4 3 219 73 479 155 259
82 470 150 469 151 -2 2 -218 -42 -482 -97 -263 -55 -486 -100 -495 -100 -15
0 -36 46 -26 56 2 2 90 29 196 59 863 247 1797 406 2676 455 105 6 217 12 250
14 123 7 1085 -3 1225 -13z m-4155 -1516 l52 -170 92 -89 c61 -60 87 -92 79
-97 -7 -3 -47 -10 -88 -13 -136 -13 -131 -19 29 -37 l154 -18 48 -47 c27 -27
46 -51 41 -55 -4 -3 -115 -15 -246 -25 -131 -10 -230 -21 -220 -25 10 -4 147
-17 304 -28 l285 -21 39 -40 c22 -22 38 -41 36 -43 -3 -3 -232 -15 -510 -28
-278 -13 -498 -25 -490 -26 8 -2 262 -14 564 -27 528 -23 549 -25 569 -45 l21
-21 -944 0 c-577 0 -940 4 -934 9 5 5 160 129 344 276 184 146 336 269 338
274 1 4 -146 108 -328 231 -182 123 -333 227 -336 232 -3 4 232 7 522 6 l526
-3 53 -170z m7911 167 c-3 -5 -154 -109 -336 -232 -182 -123 -329 -227 -328
-231 2 -4 154 -128 338 -274 184 -147 339 -271 345 -276 5 -5 -366 -9 -940 -9
l-949 0 20 21 c20 20 44 22 575 45 305 13 561 25 569 27 8 1 -212 13 -490 26
-278 13 -507 25 -510 28 -2 2 14 22 36 44 l40 40 297 23 c163 12 299 25 302
27 2 3 -102 13 -233 23 -130 10 -240 22 -244 25 -5 4 14 29 41 55 l49 48 154
17 c157 17 162 23 33 36 -126 13 -124 5 -18 108 l94 92 48 157 c27 87 51 164
55 173 5 13 70 15 531 15 290 0 524 -4 521 -8z m-6686 -90 c0 -4 -75 -199
-166 -432 -91 -234 -169 -433 -173 -443 -6 -16 -67 38 -345 305 l-338 323 43
13 c179 52 482 131 684 176 132 30 249 57 260 59 32 7 35 7 35 -1z m4517 -26
c226 -50 383 -88 578 -141 251 -68 276 -76 273 -85 -2 -5 -151 -151 -333 -324
-207 -198 -332 -311 -336 -303 -5 9 -279 707 -340 865 -5 12 -7 22 -4 22 2 0
75 -15 162 -34z"/>
<path d="M5711 7451 c-83 -19 -84 -20 -95 -113 -6 -44 -12 -58 -27 -63 -22 -7
-26 -45 -4 -45 18 0 18 -6 0 -153 -12 -100 -18 -122 -42 -152 -29 -36 -43 -37
-43 -2 0 12 -23 69 -50 127 -28 58 -56 131 -62 163 -7 32 -17 56 -23 54 -5 -3
-42 -15 -81 -27 l-72 -23 -6 -61 c-14 -121 -34 -188 -67 -216 -24 -20 -32 -36
-38 -80 -9 -66 -20 -89 -62 -124 -57 -49 -131 -21 -149 57 l-8 38 49 25 c109
55 169 135 169 224 0 44 -5 56 -29 81 -26 26 -36 29 -93 29 -157 -1 -248 -114
-248 -308 1 -101 11 -155 38 -191 71 -96 200 -96 296 0 49 49 49 49 70 30 46
-43 112 -51 211 -26 69 18 118 53 141 98 17 33 63 87 75 87 3 0 9 -21 12 -47
7 -67 39 -93 115 -93 63 0 82 9 149 73 38 37 43 39 49 21 33 -92 158 -106 245
-27 l39 35 21 -26 c24 -30 89 -50 135 -41 19 3 54 22 80 41 36 28 49 33 55 22
5 -7 9 -15 9 -18 0 -3 13 -14 30 -23 58 -35 143 -20 214 37 l30 23 21 -31 c42
-62 121 -74 206 -30 l51 25 -7 -29 c-6 -28 -5 -29 41 -36 26 -3 62 -6 80 -6
31 0 33 3 49 57 9 31 39 125 66 210 52 161 60 173 118 173 26 0 31 -4 31 -25
0 -56 80 -68 120 -18 64 82 -35 155 -147 108 -45 -19 -46 -19 -40 5 6 24 -6
28 -98 32 l-69 3 -61 -202 c-59 -199 -61 -203 -94 -219 -48 -23 -85 -10 -89
31 -1 17 21 114 51 218 l54 187 -69 2 c-37 1 -76 2 -85 2 -18 1 -18 2 -109
-342 -17 -65 -34 -85 -85 -97 -17 -4 -33 0 -48 12 l-23 19 45 189 c25 105 49
198 53 208 6 16 0 18 -82 15 l-88 -3 -32 -140 c-18 -77 -38 -171 -45 -209 -12
-63 -15 -70 -44 -82 -40 -16 -74 -8 -81 20 -4 17 44 277 73 394 5 22 3 22 -80
22 -53 0 -87 -4 -89 -11 -3 -8 -14 -8 -42 -1 -43 12 -118 2 -164 -22 -88 -45
-147 -163 -159 -314 -5 -74 -9 -85 -32 -101 -38 -27 -68 -34 -92 -20 -20 10
-21 17 -16 78 3 36 13 123 23 193 l17 127 36 3 c29 2 37 7 39 27 4 22 1 24
-33 18 -36 -6 -37 -5 -32 21 13 63 19 152 11 151 -5 -1 -42 -9 -83 -18z m505
-215 c3 -7 -8 -87 -25 -177 -26 -145 -33 -166 -56 -186 -32 -28 -66 -29 -90
-3 -14 15 -17 36 -17 98 2 96 30 194 72 245 27 31 37 37 71 37 24 0 42 -5 45
-14z m-1196 -115 c13 -26 13 -97 -1 -124 -25 -48 -96 -107 -129 -107 -13 0 -6
68 16 146 23 85 88 133 114 85z m246 -53 c9 -29 30 -80 46 -113 33 -70 35
-118 8 -162 -25 -42 -54 -56 -96 -49 -57 11 -88 76 -36 76 63 0 95 77 51 121
-20 20 -21 25 -9 100 7 43 14 79 15 79 2 0 11 -24 21 -52z"/>
<path d="M4323 7325 c-83 -23 -152 -63 -220 -128 -76 -72 -113 -142 -113 -209
0 -80 35 -128 94 -128 51 0 56 7 35 53 -11 26 -19 65 -19 101 0 109 54 181
179 239 86 41 157 43 195 8 51 -48 54 -136 9 -213 -18 -31 -75 -78 -94 -78 -5
0 -9 59 -9 131 0 121 -1 131 -17 125 -10 -4 -49 -19 -87 -33 l-69 -27 7 -151
c10 -235 27 -539 31 -551 2 -8 27 -5 80 9 l76 20 -6 156 c-3 86 -8 182 -11
213 l-5 57 33 9 c80 21 92 -2 98 -199 4 -136 8 -160 24 -178 25 -27 73 -27
136 0 l49 21 -27 23 c-27 23 -27 25 -32 182 -6 176 -15 205 -71 225 l-30 10
20 22 c30 32 61 106 61 149 0 66 -43 123 -109 146 -45 15 -144 13 -208 -4z"/>
<path d="M7713 7219 c-124 -23 -214 -136 -248 -314 -24 -122 2 -181 90 -204
49 -13 105 0 151 35 l32 23 12 -30 c25 -59 121 -86 197 -54 46 19 44 20 41
-12 -3 -25 0 -27 57 -39 33 -7 67 -13 75 -13 10 0 33 40 65 112 111 253 135
297 162 303 38 10 76 -7 87 -38 8 -23 0 -46 -52 -157 -67 -139 -77 -195 -46
-240 34 -48 135 -66 195 -35 17 8 32 14 33 12 1 -2 7 -16 14 -31 15 -34 92
-72 128 -63 13 4 39 19 57 35 l32 30 -27 10 c-42 16 -36 45 38 177 123 222
110 204 146 192 27 -9 33 -8 45 8 13 17 11 20 -16 28 -17 5 -31 13 -31 19 0 5
18 41 39 78 45 79 53 69 -69 90 -73 12 -72 13 -116 -73 -19 -38 -30 -48 -49
-48 -14 0 -25 -2 -25 -4 0 -2 -3 -11 -6 -20 -4 -11 -1 -16 10 -16 9 0 16 -2
16 -5 0 -3 -38 -78 -85 -165 -47 -87 -85 -163 -85 -168 0 -5 -6 -15 -14 -21
-16 -14 -72 3 -80 25 -3 8 24 74 60 147 55 111 65 138 61 170 -13 100 -99 147
-210 116 -45 -12 -53 -8 -38 19 9 18 4 21 -70 37 -46 10 -85 13 -90 8 -4 -4
-46 -94 -92 -198 -76 -172 -87 -191 -113 -198 -42 -12 -84 6 -84 36 0 21 47
138 138 349 l21 46 -82 15 c-54 10 -86 12 -94 5 -8 -6 -19 -5 -35 5 -30 19
-92 26 -145 16z m128 -69 c10 -6 19 -16 19 -22 0 -32 -115 -305 -137 -325 -30
-28 -74 -30 -98 -3 -47 52 41 288 127 340 37 22 60 25 89 10z"/>
<path d="M4148 6363 c7 -3 16 -2 19 1 4 3 -2 6 -13 5 -11 0 -14 -3 -6 -6z"/>
<path d="M6375 5890 l-40 -5 -32 -144 c-35 -163 -43 -181 -83 -204 -42 -25
-78 -22 -92 7 -15 34 -5 52 32 60 18 3 47 21 66 40 67 67 34 145 -57 133 -71
-9 -116 -73 -126 -182 -6 -61 -5 -65 25 -94 20 -20 40 -31 59 -31 31 0 107 32
118 49 4 8 16 1 35 -19 34 -36 64 -38 110 -6 l35 24 22 -24 c33 -36 77 -30
130 18 21 20 21 20 28 -2 8 -25 50 -43 83 -35 13 3 37 15 53 27 l28 21 20 -24
c16 -20 28 -24 74 -24 58 0 90 18 100 56 5 19 4 19 -18 5 -37 -24 -84 -21 -94
6 -12 34 -2 55 31 62 16 3 45 21 64 40 60 60 40 136 -37 136 -77 0 -130 -66
-145 -180 -7 -58 -16 -70 -51 -70 -32 0 -32 7 12 198 3 14 13 22 25 22 11 0
20 7 20 15 0 8 -7 15 -16 15 -13 0 -14 8 -8 47 l7 46 -33 -6 c-18 -4 -38 -7
-45 -7 -7 0 -15 -16 -18 -36 -3 -20 -14 -42 -24 -50 -14 -10 -15 -16 -5 -22
10 -7 8 -28 -8 -103 -20 -98 -34 -119 -77 -119 -29 0 -29 15 -3 134 27 121 28
118 -22 114 l-42 -3 -23 -110 c-15 -69 -30 -115 -40 -122 -20 -15 -49 -17 -57
-4 -3 5 10 85 29 177 20 92 34 170 33 173 -2 3 -21 4 -43 1z m-157 -173 c2
-14 -2 -35 -8 -46 -11 -22 -68 -56 -77 -47 -8 8 17 73 39 101 24 31 42 28 46
-8z m727 14 c11 -35 -23 -88 -67 -104 -24 -8 -28 1 -16 36 25 72 70 109 83 68z"/>
<path d="M6502 5888 c-28 -28 -7 -78 34 -78 29 0 46 23 42 57 -2 23 -8 29 -33
31 -17 2 -36 -3 -43 -10z"/>
<path d="M5130 5680 c-311 -20 -558 -39 -550 -42 8 -3 254 -20 545 -38 292
-17 560 -34 598 -37 l67 -6 0 82 0 81 -47 -1 c-27 -1 -302 -18 -613 -39z"/>
<path d="M7210 5640 l0 -83 68 6 c37 3 308 20 602 38 294 18 538 35 542 38 4
4 -234 21 -530 39 -295 19 -570 36 -609 39 l-73 6 0 -83z"/>
<path d="M3645 4801 c-119 -10 -162 -18 -192 -37 -23 -14 -23 -18 -23 -205 l0
-190 38 -17 c33 -15 79 -17 402 -17 377 1 423 3 1300 60 823 54 918 58 1200
59 330 0 358 -5 565 -108 229 -114 365 -155 585 -177 181 -18 546 5 828 52
453 75 971 276 1007 390 23 71 -113 100 -650 139 -624 44 -1177 46 -1565 5
-407 -43 -1086 -45 -1720 -6 -774 48 -1544 70 -1775 52z m5055 -105 c414 -34
667 -69 430 -60 -436 17 -919 22 -1500 18 -461 -4 -660 -2 -649 5 17 11 244
36 464 51 204 13 1028 4 1255 -14z m-3507 -24 c291 -17 532 -34 535 -38 8 -8
-755 2 -1158 16 -151 5 -441 12 -645 16 -220 4 -360 10 -345 15 111 37 876 33
1613 -9z"/>
</g>
</svg>
