<?xml version="1.0" standalone="no"?>
<!DOCTYPE svg PUBLIC "-//W3C//DTD SVG 20010904//EN"
 "http://www.w3.org/TR/2001/REC-SVG-20010904/DTD/svg10.dtd">
<svg version="1.0" xmlns="http://www.w3.org/2000/svg"
 width="512.000000pt" height="512.000000pt" viewBox="0 0 512.000000 512.000000"
 preserveAspectRatio="xMidYMid meet">

<g transform="translate(0.000000,512.000000) scale(0.100000,-0.100000)"
fill="#000000" stroke="none">
<path d="M2330 5110 c-493 -48 -950 -230 -1350 -538 -195 -150 -448 -432 -594
-662 -63 -99 -186 -351 -230 -471 -49 -134 -102 -340 -128 -499 -31 -195 -31
-565 0 -760 45 -276 116 -498 237 -745 131 -267 269 -460 485 -676 210 -210
387 -342 635 -470 563 -292 1211 -365 1824 -204 180 48 297 92 476 180 269
132 460 269 681 489 220 221 357 412 489 681 88 179 132 296 180 476 63 240
78 371 78 649 0 278 -15 409 -78 649 -48 180 -92 297 -180 476 -132 269 -269
460 -489 681 -221 220 -412 357 -681 489 -246 121 -474 193 -740 235 -147 23
-475 34 -615 20z m440 -191 c916 -83 1699 -688 2019 -1558 47 -128 94 -315
118 -471 24 -159 24 -501 0 -660 -63 -408 -210 -762 -453 -1090 -96 -130 -337
-373 -465 -468 -342 -254 -694 -398 -1134 -463 -114 -17 -482 -17 -590 0 -451
69 -793 209 -1134 463 -123 92 -367 336 -459 459 -702 943 -627 2227 178 3063
507 527 1205 791 1920 725z"/>
<path d="M2395 4714 c-287 -30 -520 -92 -749 -198 -451 -210 -852 -616 -1055
-1071 -282 -633 -245 -1361 100 -1960 188 -327 476 -611 812 -803 84 -48 297
-146 302 -140 1 2 9 142 18 313 23 474 16 499 -201 670 -27 22 -61 58 -74 80
l-23 40 0 530 c1 590 6 668 70 970 70 328 168 625 292 885 46 95 67 126 123
182 75 75 113 88 129 46 4 -13 11 -718 14 -1568 5 -1137 10 -1632 22 -1875 8
-181 15 -342 15 -356 0 -25 2 -26 98 -37 165 -20 332 -25 442 -14 139 15 254
32 269 41 8 5 22 212 47 682 19 371 34 687 32 704 -3 28 -9 32 -90 61 -106 38
-167 76 -243 153 -161 163 -251 386 -275 686 -16 195 19 385 101 549 60 118
92 161 198 266 216 213 448 265 686 156 159 -72 318 -234 410 -416 76 -150
106 -285 106 -473 -1 -304 -94 -569 -265 -754 -74 -80 -143 -125 -259 -169
l-94 -36 4 -46 c2 -26 17 -312 34 -637 16 -324 31 -590 32 -591 4 -4 183 88
259 134 187 111 413 309 557 487 517 643 624 1521 277 2269 -205 440 -602 837
-1042 1042 -184 85 -393 148 -594 179 -102 15 -405 27 -485 19z"/>
<path d="M2715 3088 c-101 -171 -134 -439 -76 -608 65 -187 159 -320 285 -402
105 -68 121 -43 42 63 -67 89 -109 173 -167 334 l-44 120 1 190 c0 163 4 201
22 269 23 83 22 96 -8 96 -13 0 -31 -21 -55 -62z"/>
</g>
</svg>
